<?xml version="1.0" encoding="UTF-8" standalone="no"?>
<svg
   xmlns:dc="http://purl.org/dc/elements/1.1/"
   xmlns:cc="http://creativecommons.org/ns#"
   xmlns:rdf="http://www.w3.org/1999/02/22-rdf-syntax-ns#"
   xmlns:svg="http://www.w3.org/2000/svg"
   xmlns="http://www.w3.org/2000/svg"
   xmlns:sodipodi="http://sodipodi.sourceforge.net/DTD/sodipodi-0.dtd"
   xmlns:inkscape="http://www.inkscape.org/namespaces/inkscape"
   version="1.1"
   id="Layer_1"
   x="0px"
   y="0px"
   width="64px"
   height="64px"
   viewBox="0 0 64 64"
   enable-background="new 0 0 64 64"
   xml:space="preserve"
   inkscape:version="0.48.4 r9939"
   sodipodi:docname="iworks-wordpress-logo.svg"
   inkscape:export-filename="/var/virtuals/wordpress/wp-content/themes/iworks-base-theme/images/iworks-wordpress-logo.png"
   inkscape:export-xdpi="112.52618"
   inkscape:export-ydpi="112.52618"><metadata
     id="metadata3067"><rdf:RDF><cc:Work
         rdf:about=""><dc:format>image/svg+xml</dc:format><dc:type
           rdf:resource="http://purl.org/dc/dcmitype/StillImage" /><dc:title /></cc:Work></rdf:RDF></metadata><defs
     id="defs3065" /><sodipodi:namedview
     pagecolor="#ffffff"
     bordercolor="#666666"
     borderopacity="1"
     objecttolerance="10"
     gridtolerance="10"
     guidetolerance="10"
     inkscape:pageopacity="0"
     inkscape:pageshadow="2"
     inkscape:window-width="1280"
     inkscape:window-height="969"
     id="namedview3063"
     showgrid="false"
     inkscape:zoom="6.104"
     inkscape:cx="22.558978"
     inkscape:cy="24.5"
     inkscape:window-x="1277"
     inkscape:window-y="-3"
     inkscape:window-maximized="1"
     inkscape:current-layer="Layer_1"
     showguides="true"
     inkscape:guide-bbox="true" /><style
     id="style3055">.style0{fill:	#0074A2;}</style><path
     d="m 10.416125,24.999469 c 0,5.790625 3.346875,10.784375 8.234375,13.125062 L 11.678906,19.064344 C 10.869813,20.85625 10.390625,22.875 10.390625,24.999469 z m 24.428469,-0.735782 c 0,-1.803062 -0.647594,-3.050437 -1.20275,-4.021562 -0.738969,-1.202219 -1.431719,-2.219031 -1.431719,-3.420719 0,-1.340344 1.01575,-2.58825 2.448531,-2.58825 0.06428,0 0.10625,0 0.2125,0.01169 -2.618,-2.366719 -6.099281,-3.854219 -9.871156,-3.828719 -5.095219,0 -9.576844,2.614281 -12.18475,6.5875 0.342656,0 0.690625,0 0.95625,0.01753 1.525219,0 3.886625,-0.185406 3.886625,-0.185406 0.785719,-0.04569 0.903125,1.115625 0.10625,1.221875 0,0 -0.789969,0.09244 -1.669187,0.138656 L 21.406094,33.993 24.597844,24.421469 22.326219,18.196281 C 21.5405,18.150062 20.79675,18.057625 20.79675,18.057625 c -0.78625,-0.04622 -0.693813,-1.247906 0.09244,-1.201688 0,0 2.390625,0.159375 3.825,0.185407 1.524688,0 3.887157,-0.185407 3.887157,-0.185407 0.785718,-0.04569 0.903125,1.115625 0.10625,1.201688 0,0 -0.791031,0.09244 -1.669188,0.138656 l 5.27,15.676125 1.455094,-4.859875 c 0.601375,-2.046906 1.064625,-3.481281 1.064625,-4.748844 z M 25.255531,26.275 20.879625,38.989938 c 1.306875,0.371875 2.709375,0.584375 4.14375,0.584375 1.698406,0 3.326687,-0.29325 4.842875,-0.826625 C 29.828,38.685 29.791344,38.618594 29.762125,38.546344 L 25.255531,26.275 z M 37.79675,17.9875 c 0.06322,0.478125 0.10625,0.95625 0.10625,1.499719 0,1.479531 -0.276781,3.142875 -1.10925,5.22325 l -4.454531,12.878562 c 4.335531,-2.527687 7.251562,-7.225 7.251562,-12.6055 C 39.583344,22.45 38.91875,20.059375 37.803125,18.003437 z M 25,8 C 15.626094,8 8,15.626094 8,25 8,34.35 15.65,42 25,42 34.35,42 42,34.373906 42,24.999469 42,15.65 34.35,8 25,8 z m 0,33.220656 c -8.943594,0 -16.2206562,-7.277062 -16.2206562,-16.221187 C 8.7793438,16.075 16.075,8.796875 25,8.796875 33.925,8.796875 41.221187,16.075 41.203125,25.017 41.220656,33.925 33.925,41.203125 25,41.220656 z"
     class="style0"
     id="path3061"
     inkscape:connector-curvature="0"
     style="fill:#0074a2" /><path
     id="path4092"
     style="fill:#0074a2;fill-opacity:1;stroke:none"
     d="M 29.332245,0 C 13.132492,0 -3.012384e-6,13.136075 -3.012384e-6,29.340241 -3.012384e-6,45.544407 13.132492,58.680478 29.332245,58.680478 c 16.199753,0 29.332248,-13.136071 29.332248,-29.340237 C 58.664493,13.136075 45.531998,0 29.332245,0 z m 0,5.3345928 c 13.254347,0 23.999112,10.7476942 23.999112,24.0056482 0,13.257954 -10.744765,24.005648 -23.999112,24.005648 -13.254347,0 -23.999112,-10.747694 -23.999112,-24.005648 0,-13.257954 10.744765,-24.0056482 23.999112,-24.0056482 z M 53.833706,4.8194092 48.200582,10.487409 c 4.825538,4.826853 7.799711,11.472236 7.799711,18.837766 0,14.73106 -11.93863,26.672943 -26.66568,26.672943 -7.363525,0 -14.04043,-2.974983 -18.865969,-7.801836 l -5.6331246,5.668 C 11.108717,60.139191 19.762028,64 29.334613,64 48.479771,64 63.999997,48.475552 63.999997,29.325175 c 0,-9.575188 -3.893093,-18.230857 -10.166291,-24.5057658 z" /></svg>