<?xml version="1.0" encoding="UTF-8" standalone="no"?>
<svg
   xmlns:dc="http://purl.org/dc/elements/1.1/"
   xmlns:cc="http://creativecommons.org/ns#"
   xmlns:rdf="http://www.w3.org/1999/02/22-rdf-syntax-ns#"
   xmlns:svg="http://www.w3.org/2000/svg"
   xmlns="http://www.w3.org/2000/svg"
   xmlns:sodipodi="http://sodipodi.sourceforge.net/DTD/sodipodi-0.dtd"
   xmlns:inkscape="http://www.inkscape.org/namespaces/inkscape"
   version="1.1"
   id="Layer_1"
   x="0px"
   y="0px"
   width="64px"
   height="64px"
   viewBox="0 0 64 64"
   enable-background="new 0 0 64 64"
   xml:space="preserve"
   inkscape:version="0.48.4 r9939"
   sodipodi:docname="iworks-logo.svg"
   inkscape:export-filename="/var/virtuals/wordpress/wp-content/themes/iworks-base-theme/images/iworks-logo.png"
   inkscape:export-xdpi="112.52618"
   inkscape:export-ydpi="112.52618"><metadata
     id="metadata3067"><rdf:RDF><cc:Work
         rdf:about=""><dc:format>image/svg+xml</dc:format><dc:type
           rdf:resource="http://purl.org/dc/dcmitype/StillImage" /><dc:title /></cc:Work></rdf:RDF></metadata><defs
     id="defs3065" /><sodipodi:namedview
     pagecolor="#ffffff"
     bordercolor="#666666"
     borderopacity="1"
     objecttolerance="10"
     gridtolerance="10"
     guidetolerance="10"
     inkscape:pageopacity="0"
     inkscape:pageshadow="2"
     inkscape:window-width="1280"
     inkscape:window-height="969"
     id="namedview3063"
     showgrid="false"
     inkscape:zoom="6.104"
     inkscape:cx="50"
     inkscape:cy="24.5"
     inkscape:window-x="1277"
     inkscape:window-y="-3"
     inkscape:window-maximized="1"
     inkscape:current-layer="Layer_1"
     showguides="true"
     inkscape:guide-bbox="true" /><style
     id="style3055">.style0{fill:	#0074A2;}</style><path
     sodipodi:type="arc"
     style="fill:#23201f;fill-opacity:1;stroke:none"
     id="path4133"
     sodipodi:cx="74.787025"
     sodipodi:cy="-1.8584535"
     sodipodi:rx="5.8158584"
     sodipodi:ry="7.2083879"
     d="m 80.602884,-1.8584535 a 5.8158584,7.2083879 0 1 1 -11.631717,0 5.8158584,7.2083879 0 1 1 11.631717,0 z"
     transform="matrix(2.579155,0,0,2.0809091,-169.88733,26.867273)" /><path
     id="path4092"
     style="fill:#23201f;fill-opacity:1;stroke:none"
     d="M 29.332245,0 C 13.132492,0 -3.012384e-6,13.136075 -3.012384e-6,29.340241 -3.012384e-6,45.544407 13.132492,58.680478 29.332245,58.680478 c 16.199753,0 29.332248,-13.136071 29.332248,-29.340237 C 58.664493,13.136075 45.531998,0 29.332245,0 z m 0,5.3345928 c 13.254347,0 23.999112,10.7476942 23.999112,24.0056482 0,13.257954 -10.744765,24.005648 -23.999112,24.005648 -13.254347,0 -23.999112,-10.747694 -23.999112,-24.005648 0,-13.257954 10.744765,-24.0056482 23.999112,-24.0056482 z M 53.833706,4.8194092 48.200582,10.487409 c 4.825538,4.826853 7.799711,11.472236 7.799711,18.837766 0,14.73106 -11.93863,26.672943 -26.66568,26.672943 -7.363525,0 -14.04043,-2.974983 -18.865969,-7.801836 l -5.6331246,5.668 C 11.108717,60.139191 19.762028,64 29.334613,64 48.479771,64 63.999997,48.475552 63.999997,29.325175 c 0,-9.575188 -3.893093,-18.230857 -10.166291,-24.5057658 z" /></svg>